<svg width="28" height="28" viewBox="0 0 28 28" fill="none" xmlns="http://www.w3.org/2000/svg">
<rect width="28" height="28" rx="8" fill="#F3F4F6"/>
<path d="M17.5 11.6665C18.4665 11.6665 19.25 10.883 19.25 9.9165C19.25 8.95001 18.4665 8.1665 17.5 8.1665C16.5335 8.1665 15.75 8.95001 15.75 9.9165C15.75 10.883 16.5335 11.6665 17.5 11.6665Z" stroke="#6B7280" stroke-width="1.16667" stroke-linecap="round" stroke-linejoin="round"/>
<path d="M10.5 15.75C11.4665 15.75 12.25 14.9665 12.25 14C12.25 13.0335 11.4665 12.25 10.5 12.25C9.5335 12.25 8.75 13.0335 8.75 14C8.75 14.9665 9.5335 15.75 10.5 15.75Z" stroke="#6B7280" stroke-width="1.16667" stroke-linecap="round" stroke-linejoin="round"/>
<path d="M17.5 19.8335C18.4665 19.8335 19.25 19.05 19.25 18.0835C19.25 17.117 18.4665 16.3335 17.5 16.3335C16.5335 16.3335 15.75 17.117 15.75 18.0835C15.75 19.05 16.5335 19.8335 17.5 19.8335Z" stroke="#6B7280" stroke-width="1.16667" stroke-linecap="round" stroke-linejoin="round"/>
<path d="M12.0108 14.8807L15.995 17.2024M15.9892 10.7974L12.0108 13.119" stroke="#6B7280" stroke-width="1.16667" stroke-linecap="round" stroke-linejoin="round"/>
</svg>
