<svg width="32" height="32" viewBox="0 0 32 32" fill="none" xmlns="http://www.w3.org/2000/svg">
<rect width="32" height="32" rx="12" fill="#7C3BED" fill-opacity="0.1"/>
<path d="M14.4473 10.7574C14.484 10.3709 14.6635 10.012 14.9507 9.75087C15.2379 9.4897 15.6121 9.34497 16.0003 9.34497C16.3885 9.34497 16.7627 9.4897 17.0499 9.75087C17.3371 10.012 17.5166 10.3709 17.5533 10.7574C17.5754 11.007 17.6573 11.2476 17.792 11.4589C17.9268 11.6702 18.1105 11.8459 18.3276 11.9711C18.5447 12.0964 18.7887 12.1675 19.0391 12.1784C19.2895 12.1894 19.5388 12.1398 19.766 12.034C20.1187 11.8739 20.5184 11.8507 20.8873 11.969C21.2562 12.0873 21.5678 12.3387 21.7616 12.6741C21.9554 13.0095 22.0175 13.4051 21.9357 13.7837C21.854 14.1624 21.6342 14.4971 21.3193 14.7227C21.1142 14.8666 20.9468 15.0578 20.8312 15.28C20.7157 15.5023 20.6553 15.7492 20.6553 15.9997C20.6553 16.2502 20.7157 16.4971 20.8312 16.7193C20.9468 16.9416 21.1142 17.1328 21.3193 17.2767C21.6342 17.5023 21.854 17.837 21.9357 18.2156C22.0175 18.5943 21.9554 18.9898 21.7616 19.3253C21.5678 19.6607 21.2562 19.9121 20.8873 20.0304C20.5184 20.1487 20.1187 20.1255 19.766 19.9654C19.5388 19.8595 19.2895 19.81 19.0391 19.8209C18.7887 19.8319 18.5447 19.903 18.3276 20.0282C18.1105 20.1535 17.9268 20.3292 17.792 20.5405C17.6573 20.7517 17.5754 20.9924 17.5533 21.242C17.5166 21.6285 17.3371 21.9873 17.0499 22.2485C16.7627 22.5097 16.3885 22.6544 16.0003 22.6544C15.6121 22.6544 15.2379 22.5097 14.9507 22.2485C14.6635 21.9873 14.484 21.6285 14.4473 21.242C14.4253 20.9923 14.3434 20.7516 14.2085 20.5402C14.0737 20.3288 13.8899 20.1531 13.6728 20.0278C13.4556 19.9026 13.2115 19.8315 12.961 19.8206C12.7106 19.8097 12.4612 19.8594 12.234 19.9654C11.8812 20.1255 11.4815 20.1487 11.1126 20.0304C10.7437 19.9121 10.4321 19.6607 10.2383 19.3253C10.0445 18.9898 9.98244 18.5943 10.0642 18.2156C10.146 17.837 10.3657 17.5023 10.6806 17.2767C10.8857 17.1328 11.0531 16.9416 11.1687 16.7193C11.2843 16.4971 11.3446 16.2502 11.3446 15.9997C11.3446 15.7492 11.2843 15.5023 11.1687 15.28C11.0531 15.0578 10.8857 14.8666 10.6806 14.7227C10.3661 14.497 10.1468 14.1624 10.0652 13.784C9.98366 13.4056 10.0457 13.0104 10.2393 12.6752C10.4329 12.3399 10.7442 12.0887 11.1127 11.9702C11.4812 11.8517 11.8806 11.8744 12.2333 12.034C12.4605 12.1398 12.7098 12.1894 12.9602 12.1784C13.2105 12.1675 13.4546 12.0964 13.6717 11.9711C13.8887 11.8459 14.0724 11.6702 14.2072 11.4589C14.342 11.2476 14.4239 11.007 14.446 10.7574" stroke="#7C3BED" stroke-width="1.33333" stroke-linecap="round" stroke-linejoin="round"/>
<path d="M16 18C17.1046 18 18 17.1046 18 16C18 14.8954 17.1046 14 16 14C14.8954 14 14 14.8954 14 16C14 17.1046 14.8954 18 16 18Z" stroke="#7C3BED" stroke-width="1.33333" stroke-linecap="round" stroke-linejoin="round"/>
</svg>
