<svg width="18" height="18" viewBox="0 0 18 18" fill="none" xmlns="http://www.w3.org/2000/svg">
<path d="M14.0325 14.625C13.41 15.555 12.75 16.4625 11.745 16.4775C10.74 16.5 10.4175 15.885 9.27749 15.885C8.12999 15.885 7.77749 16.4625 6.82499 16.5C5.84249 16.5375 5.09999 15.51 4.46999 14.6025C3.18749 12.75 2.20499 9.3375 3.52499 7.0425C4.17749 5.9025 5.34749 5.1825 6.61499 5.16C7.57499 5.145 8.48999 5.8125 9.08249 5.8125C9.66749 5.8125 10.7775 5.01 11.9325 5.13C12.42 5.1525 13.785 5.325 14.6625 6.615C14.595 6.66 13.035 7.575 13.05 9.4725C13.0725 11.7375 15.0375 12.495 15.06 12.5025C15.0375 12.555 14.745 13.5825 14.025 14.625M9.74999 2.625C10.2975 2.0025 11.205 1.53 11.955 1.5C12.0525 2.3775 11.7 3.2625 11.175 3.8925C10.6575 4.53 9.80249 5.025 8.96249 4.9575C8.84999 4.095 9.26999 3.195 9.74999 2.625Z" fill="#364153"/>
</svg>
