<svg width="44" height="44" viewBox="0 0 44 44" fill="none" xmlns="http://www.w3.org/2000/svg">
<g filter="url(#filter0_d_3_1026)">
<mask id="path-1-inside-1_3_1026" fill="white">
<path d="M4 21C4 11.0589 12.0589 3 22 3C31.9411 3 40 11.0589 40 21C40 30.9411 31.9411 39 22 39C12.0589 39 4 30.9411 4 21Z"/>
</mask>
<path d="M4 21C4 11.0589 12.0589 3 22 3C31.9411 3 40 11.0589 40 21C40 30.9411 31.9411 39 22 39C12.0589 39 4 30.9411 4 21Z" fill="white" shape-rendering="crispEdges"/>
<path d="M4 21M40 21M40 21M4 21M22 3M40 21M22 39M4 21M22 39V38C12.6112 38 5 30.3888 5 21H4H3C3 31.4934 11.5066 40 22 40V39ZM40 21H39C39 30.3888 31.3888 38 22 38V39V40C32.4934 40 41 31.4934 41 21H40ZM22 3V4C31.3888 4 39 11.6112 39 21H40H41C41 10.5066 32.4934 2 22 2V3ZM22 3V2C11.5066 2 3 10.5066 3 21H4H5C5 11.6112 12.6112 4 22 4V3Z" fill="#E5E7EB" mask="url(#path-1-inside-1_3_1026)"/>
<path d="M18.9167 15.75L27.0834 21L18.9167 26.25V15.75Z" fill="#111827"/>
</g>
<defs>
<filter id="filter0_d_3_1026" x="0" y="0" width="44" height="44" filterUnits="userSpaceOnUse" color-interpolation-filters="sRGB">
<feFlood flood-opacity="0" result="BackgroundImageFix"/>
<feColorMatrix in="SourceAlpha" type="matrix" values="0 0 0 0 0 0 0 0 0 0 0 0 0 0 0 0 0 0 127 0" result="hardAlpha"/>
<feOffset dy="1"/>
<feGaussianBlur stdDeviation="2"/>
<feComposite in2="hardAlpha" operator="out"/>
<feColorMatrix type="matrix" values="0 0 0 0 0 0 0 0 0 0 0 0 0 0 0 0 0 0 0.07 0"/>
<feBlend mode="normal" in2="BackgroundImageFix" result="effect1_dropShadow_3_1026"/>
<feBlend mode="normal" in="SourceGraphic" in2="effect1_dropShadow_3_1026" result="shape"/>
</filter>
</defs>
</svg>
