<svg width="28" height="28" viewBox="0 0 28 28" fill="none" xmlns="http://www.w3.org/2000/svg">
<rect width="28" height="28" rx="8" fill="#FEF2F2"/>
<path d="M8.75 10.5H9.91667H19.25" stroke="#EF4444" stroke-width="1.16667" stroke-linecap="round" stroke-linejoin="round"/>
<path d="M18.0833 10.5L17.5 18.6667C17.5 18.9761 17.3771 19.2728 17.1583 19.4916C16.9395 19.7104 16.6428 19.8333 16.3333 19.8333H11.6667C11.3573 19.8333 11.0605 19.7104 10.8417 19.4916C10.6229 19.2728 10.5 18.9761 10.5 18.6667L9.91667 10.5" stroke="#EF4444" stroke-width="1.16667" stroke-linecap="round" stroke-linejoin="round"/>
<path d="M12.8333 13.4165V16.9165M15.1667 13.4165V16.9165" stroke="#EF4444" stroke-width="1.16667" stroke-linecap="round" stroke-linejoin="round"/>
<path d="M12.25 10.5V9.33333C12.25 9.17862 12.3115 9.03025 12.4209 8.92085C12.5303 8.81146 12.6786 8.75 12.8333 8.75H15.1667C15.3214 8.75 15.4697 8.81146 15.5791 8.92085C15.6885 9.03025 15.75 9.17862 15.75 9.33333V10.5" stroke="#EF4444" stroke-width="1.16667" stroke-linecap="round" stroke-linejoin="round"/>
</svg>
