<svg width="38" height="38" viewBox="0 0 38 38" fill="none" xmlns="http://www.w3.org/2000/svg">
<rect width="38" height="38" rx="19" fill="#EDE9FE"/>
<path d="M13.1667 20.3332C13.9031 20.3332 14.5 19.7362 14.5 18.9998C14.5 18.2635 13.9031 17.6665 13.1667 17.6665C12.4303 17.6665 11.8333 18.2635 11.8333 18.9998C11.8333 19.7362 12.4303 20.3332 13.1667 20.3332Z" fill="#7C3AED"/>
<path d="M19 20.3332C19.7364 20.3332 20.3333 19.7362 20.3333 18.9998C20.3333 18.2635 19.7364 17.6665 19 17.6665C18.2636 17.6665 17.6667 18.2635 17.6667 18.9998C17.6667 19.7362 18.2636 20.3332 19 20.3332Z" fill="#7C3AED"/>
<path d="M24.8333 20.3332C25.5697 20.3332 26.1667 19.7362 26.1667 18.9998C26.1667 18.2635 25.5697 17.6665 24.8333 17.6665C24.097 17.6665 23.5 18.2635 23.5 18.9998C23.5 19.7362 24.097 20.3332 24.8333 20.3332Z" fill="#7C3AED"/>
</svg>
