<svg width="20" height="20" viewBox="0 0 20 20" fill="none" xmlns="http://www.w3.org/2000/svg">
<mask id="path-1-inside-1_3_1188" fill="white">
<path d="M0 6C0 2.68629 2.68629 0 6 0H14C17.3137 0 20 2.68629 20 6V14C20 17.3137 17.3137 20 14 20H6C2.68629 20 0 17.3137 0 14V6Z"/>
</mask>
<path d="M0 6C0 2.68629 2.68629 0 6 0H14C17.3137 0 20 2.68629 20 6V14C20 17.3137 17.3137 20 14 20H6C2.68629 20 0 17.3137 0 14V6Z" fill="#7C3AED"/>
<path d="M6 0V1H14V0V-1H6V0ZM20 6H19V14H20H21V6H20ZM14 20V19H6V20V21H14V20ZM0 14H1V6H0H-1V14H0ZM6 20V19C3.23858 19 1 16.7614 1 14H0H-1C-1 17.866 2.13401 21 6 21V20ZM20 14H19C19 16.7614 16.7614 19 14 19V20V21C17.866 21 21 17.866 21 14H20ZM14 0V1C16.7614 1 19 3.23858 19 6H20H21C21 2.13401 17.866 -1 14 -1V0ZM6 0V-1C2.13401 -1 -1 2.13401 -1 6H0H1C1 3.23858 3.23858 1 6 1V0Z" fill="#7C3AED" mask="url(#path-1-inside-1_3_1188)"/>
<path d="M13.3333 7.5L8.74999 12.0833L6.66666 10" stroke="white" stroke-width="1.25" stroke-linecap="round"/>
</svg>
