<svg width="64" height="50" viewBox="0 0 64 50" fill="none" xmlns="http://www.w3.org/2000/svg">
<path d="M35 29V21C35 20.7348 34.8946 20.4804 34.7071 20.2929C34.5196 20.1054 34.2652 20 34 20H30C29.7348 20 29.4804 20.1054 29.2929 20.2929C29.1054 20.4804 29 20.7348 29 21V29" stroke="#7C3BED" stroke-width="2" stroke-linecap="round" stroke-linejoin="round"/>
<path d="M23 18C22.9999 17.7091 23.0633 17.4216 23.1858 17.1577C23.3082 16.8938 23.4868 16.6598 23.709 16.472L30.709 10.472C31.07 10.1669 31.5274 9.99951 32 9.99951C32.4726 9.99951 32.93 10.1669 33.291 10.472L40.291 16.472C40.5132 16.6598 40.6918 16.8938 40.8142 17.1577C40.9367 17.4216 41.0001 17.7091 41 18V27C41 27.5304 40.7893 28.0391 40.4142 28.4142C40.0391 28.7893 39.5304 29 39 29H25C24.4696 29 23.9609 28.7893 23.5858 28.4142C23.2107 28.0391 23 27.5304 23 27V18Z" stroke="#7C3BED" stroke-width="2" stroke-linecap="round" stroke-linejoin="round"/>
<rect x="30" y="38" width="4" height="4" rx="2" fill="#7C3BED"/>
</svg>
