<svg width="80" height="80" viewBox="0 0 80 80" fill="none" xmlns="http://www.w3.org/2000/svg">
<rect x="12" y="2" width="56" height="56" rx="28" fill="url(#paint0_linear_27_9)"/>
<g filter="url(#filter0_dd_27_9)">
<rect x="12" y="2" width="56" height="56" rx="28" fill="white" fill-opacity="0.01" shape-rendering="crispEdges"/>
</g>
<path d="M40 37V40" stroke="white" stroke-width="2" stroke-linecap="round" stroke-linejoin="round"/>
<path d="M47 28V30C47 31.8565 46.2625 33.637 44.9497 34.9497C43.637 36.2625 41.8565 37 40 37C38.1435 37 36.363 36.2625 35.0503 34.9497C33.7375 33.637 33 31.8565 33 30V28" stroke="white" stroke-width="2" stroke-linecap="round" stroke-linejoin="round"/>
<path d="M43 23C43 21.3431 41.6569 20 40 20C38.3431 20 37 21.3431 37 23V30C37 31.6569 38.3431 33 40 33C41.6569 33 43 31.6569 43 30V23Z" stroke="white" stroke-width="2" stroke-linecap="round" stroke-linejoin="round"/>
<defs>
<filter id="filter0_dd_27_9" x="0" y="0" width="80" height="80" filterUnits="userSpaceOnUse" color-interpolation-filters="sRGB">
<feFlood flood-opacity="0" result="BackgroundImageFix"/>
<feColorMatrix in="SourceAlpha" type="matrix" values="0 0 0 0 0 0 0 0 0 0 0 0 0 0 0 0 0 0 127 0" result="hardAlpha"/>
<feMorphology radius="4" operator="erode" in="SourceAlpha" result="effect1_dropShadow_27_9"/>
<feOffset dy="4"/>
<feGaussianBlur stdDeviation="3"/>
<feComposite in2="hardAlpha" operator="out"/>
<feColorMatrix type="matrix" values="0 0 0 0 0.48707 0 0 0 0 0.231355 0 0 0 0 0.928543 0 0 0 0.3 0"/>
<feBlend mode="normal" in2="BackgroundImageFix" result="effect1_dropShadow_27_9"/>
<feColorMatrix in="SourceAlpha" type="matrix" values="0 0 0 0 0 0 0 0 0 0 0 0 0 0 0 0 0 0 127 0" result="hardAlpha"/>
<feMorphology radius="3" operator="erode" in="SourceAlpha" result="effect2_dropShadow_27_9"/>
<feOffset dy="10"/>
<feGaussianBlur stdDeviation="7.5"/>
<feComposite in2="hardAlpha" operator="out"/>
<feColorMatrix type="matrix" values="0 0 0 0 0.48707 0 0 0 0 0.231355 0 0 0 0 0.928543 0 0 0 0.3 0"/>
<feBlend mode="normal" in2="effect1_dropShadow_27_9" result="effect2_dropShadow_27_9"/>
<feBlend mode="normal" in="SourceGraphic" in2="effect2_dropShadow_27_9" result="shape"/>
</filter>
<linearGradient id="paint0_linear_27_9" x1="12" y1="58" x2="68" y2="2" gradientUnits="userSpaceOnUse">
<stop stop-color="#7C3AED"/>
<stop offset="1" stop-color="#A78BFA"/>
</linearGradient>
</defs>
</svg>
