<svg width="318" height="144" viewBox="0 0 318 144" fill="none" xmlns="http://www.w3.org/2000/svg">
<rect x="57" y="65" width="4" height="14" rx="2" fill="#A78BFA" fill-opacity="0.6"/>
<rect x="64" y="57" width="4" height="22" rx="2" fill="#A78BFA" fill-opacity="0.6"/>
<rect x="71" y="49" width="4" height="30" rx="2" fill="#A78BFA" fill-opacity="0.6"/>
<rect x="78" y="59" width="4" height="20" rx="2" fill="#A78BFA" fill-opacity="0.6"/>
<rect x="85" y="51" width="4" height="28" rx="2" fill="#A78BFA" fill-opacity="0.6"/>
<rect x="92" y="63" width="4" height="16" rx="2" fill="#A78BFA" fill-opacity="0.6"/>
<rect x="99" y="55" width="4" height="24" rx="2" fill="#A78BFA" fill-opacity="0.6"/>
<rect x="115" y="24" width="80" height="80" rx="24" fill="url(#paint0_linear_14_35)"/>
<g filter="url(#filter0_dd_14_35)">
<rect x="115" y="24" width="80" height="80" rx="24" fill="white" fill-opacity="0.01" shape-rendering="crispEdges"/>
</g>
<path d="M155 49C156.193 49 157.338 49.4741 158.182 50.318C159.026 51.1619 159.5 52.3065 159.5 53.5V64C159.5 65.1935 159.026 66.3381 158.182 67.182C157.338 68.0259 156.193 68.5 155 68.5C153.807 68.5 152.662 68.0259 151.818 67.182C150.974 66.3381 150.5 65.1935 150.5 64V53.5C150.5 52.3065 150.974 51.1619 151.818 50.318C152.662 49.4741 153.807 49 155 49Z" stroke="white" stroke-width="3" stroke-linecap="round"/>
<path d="M165.5 61V64C165.5 66.7848 164.394 69.4555 162.425 71.4246C160.455 73.3938 157.785 74.5 155 74.5C152.215 74.5 149.545 73.3938 147.575 71.4246C145.606 69.4555 144.5 66.7848 144.5 64V61" stroke="white" stroke-width="3" stroke-linecap="round"/>
<path d="M155 74.5V80.5" stroke="white" stroke-width="3" stroke-linecap="round"/>
<path d="M149 80.5H161" stroke="white" stroke-width="3" stroke-linecap="round"/>
<rect x="207" y="55" width="4" height="24" rx="2" fill="#A78BFA" fill-opacity="0.6"/>
<rect x="214" y="63" width="4" height="16" rx="2" fill="#A78BFA" fill-opacity="0.6"/>
<rect x="221" y="51" width="4" height="28" rx="2" fill="#A78BFA" fill-opacity="0.6"/>
<rect x="228" y="59" width="4" height="20" rx="2" fill="#A78BFA" fill-opacity="0.6"/>
<rect x="235" y="49" width="4" height="30" rx="2" fill="#A78BFA" fill-opacity="0.6"/>
<rect x="242" y="57" width="4" height="22" rx="2" fill="#A78BFA" fill-opacity="0.6"/>
<rect x="249" y="65" width="4" height="14" rx="2" fill="#A78BFA" fill-opacity="0.6"/>
<rect y="8" width="8" height="8" rx="4" fill="#7C3AED" fill-opacity="0.2"/>
<rect x="32" y="40" width="6" height="6" rx="3" fill="#7C3AED" fill-opacity="0.3"/>
<rect x="292" width="10" height="10" rx="5" fill="#A78BFA" fill-opacity="0.25"/>
<rect x="312" y="56" width="6" height="6" rx="3" fill="#7C3AED" fill-opacity="0.2"/>
<defs>
<filter id="filter0_dd_14_35" x="95" y="24" width="120" height="120" filterUnits="userSpaceOnUse" color-interpolation-filters="sRGB">
<feFlood flood-opacity="0" result="BackgroundImageFix"/>
<feColorMatrix in="SourceAlpha" type="matrix" values="0 0 0 0 0 0 0 0 0 0 0 0 0 0 0 0 0 0 127 0" result="hardAlpha"/>
<feMorphology radius="6" operator="erode" in="SourceAlpha" result="effect1_dropShadow_14_35"/>
<feOffset dy="8"/>
<feGaussianBlur stdDeviation="5"/>
<feComposite in2="hardAlpha" operator="out"/>
<feColorMatrix type="matrix" values="0 0 0 0 0.759567 0 0 0 0 0.479801 0 0 0 0 1 0 0 0 0.3 0"/>
<feBlend mode="normal" in2="BackgroundImageFix" result="effect1_dropShadow_14_35"/>
<feColorMatrix in="SourceAlpha" type="matrix" values="0 0 0 0 0 0 0 0 0 0 0 0 0 0 0 0 0 0 127 0" result="hardAlpha"/>
<feMorphology radius="5" operator="erode" in="SourceAlpha" result="effect2_dropShadow_14_35"/>
<feOffset dy="20"/>
<feGaussianBlur stdDeviation="12.5"/>
<feComposite in2="hardAlpha" operator="out"/>
<feColorMatrix type="matrix" values="0 0 0 0 0.759567 0 0 0 0 0.479801 0 0 0 0 1 0 0 0 0.3 0"/>
<feBlend mode="normal" in2="effect1_dropShadow_14_35" result="effect2_dropShadow_14_35"/>
<feBlend mode="normal" in="SourceGraphic" in2="effect2_dropShadow_14_35" result="shape"/>
</filter>
<linearGradient id="paint0_linear_14_35" x1="115" y1="24" x2="195" y2="104" gradientUnits="userSpaceOnUse">
<stop stop-color="#7C3AED"/>
<stop offset="1" stop-color="#A78BFA"/>
</linearGradient>
</defs>
</svg>
