<svg width="28" height="28" viewBox="0 0 28 28" fill="none" xmlns="http://www.w3.org/2000/svg">
<rect width="28" height="28" rx="8" fill="#F3F4F6"/>
<g clip-path="url(#clip0_73_184)">
<path d="M13.4167 9.3335H9.33334C9.02392 9.3335 8.72717 9.45641 8.50838 9.6752C8.28959 9.894 8.16667 10.1907 8.16667 10.5002V18.6668C8.16667 18.9762 8.28959 19.273 8.50838 19.4918C8.72717 19.7106 9.02392 19.8335 9.33334 19.8335H17.5C17.8094 19.8335 18.1062 19.7106 18.325 19.4918C18.5438 19.273 18.6667 18.9762 18.6667 18.6668V14.5835" stroke="#6B7280" stroke-width="1.16667" stroke-linecap="round" stroke-linejoin="round"/>
<path d="M17.7917 8.45814C18.0237 8.22608 18.3385 8.0957 18.6667 8.0957C18.9949 8.0957 19.3096 8.22608 19.5417 8.45814C19.7737 8.6902 19.9041 9.00495 19.9041 9.33314C19.9041 9.66133 19.7737 9.97608 19.5417 10.2081L14 15.7498L11.6667 16.3331L12.25 13.9998L17.7917 8.45814Z" stroke="#6B7280" stroke-width="1.16667" stroke-linecap="round" stroke-linejoin="round"/>
</g>
<defs>
<clipPath id="clip0_73_184">
<rect width="14" height="14" fill="white" transform="translate(7 7)"/>
</clipPath>
</defs>
</svg>
