<svg width="32" height="32" viewBox="0 0 32 32" fill="none" xmlns="http://www.w3.org/2000/svg">
<path d="M16 16.8333C16.4602 16.8333 16.8333 16.4602 16.8333 16C16.8333 15.5397 16.4602 15.1666 16 15.1666C15.5398 15.1666 15.1667 15.5397 15.1667 16C15.1667 16.4602 15.5398 16.8333 16 16.8333Z" stroke="#6A7282" stroke-width="1.66667" stroke-linecap="round" stroke-linejoin="round"/>
<path d="M21.8333 16.8333C22.2936 16.8333 22.6667 16.4602 22.6667 16C22.6667 15.5397 22.2936 15.1666 21.8333 15.1666C21.3731 15.1666 21 15.5397 21 16C21 16.4602 21.3731 16.8333 21.8333 16.8333Z" stroke="#6A7282" stroke-width="1.66667" stroke-linecap="round" stroke-linejoin="round"/>
<path d="M10.1667 16.8333C10.6269 16.8333 11 16.4602 11 16C11 15.5397 10.6269 15.1666 10.1667 15.1666C9.70643 15.1666 9.33334 15.5397 9.33334 16C9.33334 16.4602 9.70643 16.8333 10.1667 16.8333Z" stroke="#6A7282" stroke-width="1.66667" stroke-linecap="round" stroke-linejoin="round"/>
</svg>
