<svg width="32" height="32" viewBox="0 0 32 32" fill="none" xmlns="http://www.w3.org/2000/svg">
<rect width="32" height="32" rx="12" fill="#7C3BED" fill-opacity="0.1"/>
<path d="M16 22.6667C19.6819 22.6667 22.6667 19.6819 22.6667 16C22.6667 12.3181 19.6819 9.33337 16 9.33337C12.3181 9.33337 9.33337 12.3181 9.33337 16C9.33337 19.6819 12.3181 22.6667 16 22.6667Z" stroke="#7C3BED" stroke-width="1.33333" stroke-linecap="round" stroke-linejoin="round"/>
<path d="M14.0601 14C14.2168 13.5545 14.5262 13.1788 14.9334 12.9394C15.3406 12.7001 15.8193 12.6126 16.2848 12.6925C16.7504 12.7723 17.1726 13.0144 17.4768 13.3757C17.781 13.737 17.9474 14.1944 17.9467 14.6667C17.9467 16 15.9467 16.6667 15.9467 16.6667" stroke="#7C3BED" stroke-width="1.33333" stroke-linecap="round" stroke-linejoin="round"/>
<path d="M16 19.3334H16.0067" stroke="#7C3BED" stroke-width="1.33333" stroke-linecap="round" stroke-linejoin="round"/>
</svg>
